<svg width="342" height="388" viewBox="0 0 342 388" fill="none" xmlns="http://www.w3.org/2000/svg">
<path d="M0 0.460033C113.92 0.450033 227.83 0.440033 341.75 0.460033C335.48 71.31 329.31 142.16 322.78 212.99C318.9 258.26 314.9 303.53 310.68 348.77C286.37 355.21 262.3 362.55 238 369.02C215.68 375.57 193.18 381.5 170.85 388H170.19C148.94 381.68 127.48 376.12 106.23 369.8C81.15 363.04 56.29 355.5 31.2 348.77C27.93 314.86 24.98 280.93 22.07 247C16.58 184.31 10.61 121.66 5.33 58.96C3.5 40.09 2.19 21.16 0 2.33004V0.460033ZM171.41 28.41C171.17 42.02 171.59 55.64 171.17 69.24C132.09 69.1 93 69.21 53.92 69.25C54.59 82.46 56.36 95.58 58.18 108.68C94.54 110.03 130.95 108.63 167.31 109.72C135.5 123.99 103.3 137.43 71.35 151.4C68.61 152.62 65.68 153.54 63.23 155.32C63.5 169.83 65.84 184.26 66.87 198.74C86.25 198.67 105.62 198.36 125 198.33C140.53 198.25 156.07 198.56 171.6 198.22C170.86 222.08 171.83 245.97 171.1 269.83C160.65 268.28 150.33 265.95 139.92 264.1C131.71 262.31 123.3 261.38 115.21 259.03C114.06 247.58 113.26 236.09 112.24 224.63C109.9 223.91 107.42 223.98 105 223.94C93.26 224.01 81.51 223.9 69.76 224.08C70.91 246.11 72.89 268.11 76.26 289.93C87.84 292.95 99.44 295.91 111 299.06C128.71 303.88 146.64 307.89 164.38 312.63C166.49 313.08 168.62 313.86 170.81 313.68C171.99 328.17 171.08 342.75 171.3 357.28C175.39 356.62 179.41 355.61 183.36 354.39C216.94 345.27 250.48 335.98 284.04 326.77C285.71 313.57 286.49 300.28 287.81 287.05C291.3 246.83 294.82 206.61 298.48 166.4C302.77 120.4 306.48 74.35 310.8 28.35C264.33 28.39 217.87 28.26 171.41 28.41Z" fill="#0170BA"/>
<path d="M171.41 28.41C217.87 28.26 264.33 28.39 310.8 28.35C306.48 74.35 302.77 120.4 298.48 166.4C294.82 206.61 291.3 246.83 287.81 287.05C286.49 300.28 285.71 313.57 284.04 326.77C250.48 335.98 216.94 345.27 183.36 354.39C179.41 355.61 175.39 356.62 171.3 357.28C171.08 342.75 171.99 328.17 170.81 313.68C171.11 313.62 171.72 313.5 172.02 313.44C203.25 305.6 234.27 296.97 265.43 288.85C269.37 244.65 273.74 200.47 276.51 156.18C250.01 156.32 223.5 156.24 197 156.35C193.14 156.37 189.28 156.35 185.44 156.07C199.7 148.73 214.7 142.91 229.34 136.36C243.39 129.99 257.61 124.02 271.71 117.77C274.43 116.52 277.33 115.48 279.72 113.62C280.66 110.17 280.61 106.56 280.98 103.03C281.79 91.83 283.23 80.69 283.77 69.48C246.24 69.18 208.71 69.44 171.17 69.24C171.59 55.64 171.17 42.02 171.41 28.41Z" fill="#29A9DF"/>
<path d="M171.6 198.22C189.72 197.91 207.85 198.4 225.98 198.28C224.97 216.81 223.43 235.31 222.47 253.84C211.36 257.47 200.08 260.54 188.88 263.9C182.91 265.72 176.78 267.16 171.1 269.83C171.83 245.97 170.86 222.08 171.6 198.22Z" fill="#29A9DF"/>
<path d="M53.92 69.25C93 69.21 132.09 69.1 171.17 69.24C171.68 112.24 171.04 155.24 171.6 198.22C156.07 198.56 140.53 198.25 125 198.33C105.62 198.36 86.25 198.67 66.87 198.74C65.84 184.26 63.5 169.83 63.23 155.32C65.68 153.54 68.61 152.62 71.35 151.4C103.3 137.43 135.5 123.99 167.31 109.72C130.95 108.63 94.54 110.03 58.18 108.68C56.36 95.58 54.59 82.46 53.92 69.25Z" fill="#CFCFCF"/>
<path d="M69.76 224.08C81.51 223.9 93.26 224.01 105 223.94C107.42 223.98 109.9 223.91 112.24 224.63C113.26 236.09 114.06 247.58 115.21 259.03C123.3 261.38 131.71 262.31 139.92 264.1C150.33 265.95 160.65 268.28 171.1 269.83C172.1 284.35 170.35 298.97 172.02 313.44C171.72 313.5 171.11 313.62 170.81 313.68C168.62 313.86 166.49 313.08 164.38 312.63C146.64 307.89 128.71 303.88 111 299.06C99.44 295.91 87.84 292.95 76.26 289.93C72.89 268.11 70.91 246.11 69.76 224.08Z" fill="#CFCFCF"/>
<path d="M171.17 69.24C208.71 69.44 246.24 69.18 283.77 69.48C283.23 80.69 281.79 91.83 280.98 103.03C280.61 106.56 280.66 110.17 279.72 113.62C277.33 115.48 274.43 116.52 271.71 117.77C257.61 124.02 243.39 129.99 229.34 136.36C214.7 142.91 199.7 148.73 185.44 156.07C189.28 156.35 193.14 156.37 197 156.35C223.5 156.24 250.01 156.32 276.51 156.18C273.74 200.47 269.37 244.65 265.43 288.85C234.27 296.97 203.25 305.6 172.02 313.44C170.35 298.97 172.1 284.35 171.1 269.83C176.78 267.16 182.91 265.72 188.88 263.9C200.08 260.54 211.36 257.47 222.47 253.84C223.43 235.31 224.97 216.81 225.98 198.28C207.85 198.4 189.72 197.91 171.6 198.22C171.04 155.24 171.68 112.24 171.17 69.24Z" fill="white"/>
</svg>
